<?xml version="1.0" encoding="UTF-8" standalone="no"?>
<svg
   xmlns:dc="http://purl.org/dc/elements/1.1/"
   xmlns:cc="http://creativecommons.org/ns#"
   xmlns:rdf="http://www.w3.org/1999/02/22-rdf-syntax-ns#"
   xmlns:svg="http://www.w3.org/2000/svg"
   xmlns="http://www.w3.org/2000/svg"
   xmlns:xlink="http://www.w3.org/1999/xlink"
   xmlns:sodipodi="http://sodipodi.sourceforge.net/DTD/sodipodi-0.dtd"
   xmlns:inkscape="http://www.inkscape.org/namespaces/inkscape"
   width="500"
   height="500"
   id="svg2965"
   version="1.1"
   inkscape:version="0.47pre3 r22311"
   sodipodi:docname="PyCon.svg"
   inkscape:export-filename="/home/jza/public_html/pyconmx/media/images/logo.png"
   inkscape:export-xdpi="10.8"
   inkscape:export-ydpi="10.8">
  <title
     id="title2902">PyConMx Logo</title>
  <metadata
     id="metadata3018">
    <rdf:RDF>
      <cc:Work
         rdf:about="">
        <dc:format>image/svg+xml</dc:format>
        <dc:type
           rdf:resource="http://purl.org/dc/dcmitype/StillImage" />
        <dc:title>PyConMx Logo</dc:title>
        <dc:date>08/23/14</dc:date>
        <dc:creator>
          <cc:Agent>
            <dc:title>JZA</dc:title>
          </cc:Agent>
        </dc:creator>
        <dc:rights>
          <cc:Agent>
            <dc:title>CC Derivative work</dc:title>
          </cc:Agent>
        </dc:rights>
        <dc:publisher>
          <cc:Agent>
            <dc:title>JZA</dc:title>
          </cc:Agent>
        </dc:publisher>
        <dc:language>Spanish</dc:language>
        <dc:subject>
          <rdf:Bag>
            <rdf:li>pycon</rdf:li>
            <rdf:li>pylogo</rdf:li>
            <rdf:li>python</rdf:li>
            <rdf:li>mexico</rdf:li>
            <rdf:li>pyconmx</rdf:li>
          </rdf:Bag>
        </dc:subject>
        <dc:description>This logo represent the logo for the first PyCon Mexico, is the first iteration and hasn't been officialized at the moment.
It involves the chage of colors of the snakes driven by the mexican flag, and a string between in white as opposed to the transparent.</dc:description>
        <dc:contributor>
          <cc:Agent>
            <dc:title>Alexandro &quot;JZA&quot; Colorado</dc:title>
          </cc:Agent>
        </dc:contributor>
        <cc:license
           rdf:resource="http://creativecommons.org/licenses/by/3.0/" />
        <dc:relation>Logo design.</dc:relation>
        <dc:source>http://commons.wikimedia.org/wiki/File:Python.svg</dc:source>
      </cc:Work>
      <cc:License
         rdf:about="http://creativecommons.org/licenses/by/3.0/">
        <cc:permits
           rdf:resource="http://creativecommons.org/ns#Reproduction" />
        <cc:permits
           rdf:resource="http://creativecommons.org/ns#Distribution" />
        <cc:requires
           rdf:resource="http://creativecommons.org/ns#Notice" />
        <cc:requires
           rdf:resource="http://creativecommons.org/ns#Attribution" />
        <cc:permits
           rdf:resource="http://creativecommons.org/ns#DerivativeWorks" />
      </cc:License>
    </rdf:RDF>
  </metadata>
  <sodipodi:namedview
     pagecolor="#ffffff"
     bordercolor="#666666"
     borderopacity="1"
     objecttolerance="10"
     gridtolerance="10"
     guidetolerance="10"
     inkscape:pageopacity="0"
     inkscape:pageshadow="2"
     inkscape:window-width="931"
     inkscape:window-height="646"
     id="namedview3016"
     showgrid="false"
     showguides="true"
     inkscape:guide-bbox="true"
     inkscape:zoom="1.1228856"
     inkscape:cx="207.12696"
     inkscape:cy="249.44668"
     inkscape:window-x="0"
     inkscape:window-y="0"
     inkscape:window-maximized="0"
     inkscape:current-layer="svg2965" />
  <defs
     id="defs2967">
    <inkscape:perspective
       sodipodi:type="inkscape:persp3d"
       inkscape:vp_x="0 : 24 : 1"
       inkscape:vp_y="0 : 1000 : 0"
       inkscape:vp_z="48 : 24 : 1"
       inkscape:persp3d-origin="24 : 16 : 1"
       id="perspective3020" />
    <linearGradient
       id="lg1">
      <stop
         stop-color="#3778ae"
         offset="0"
         id="stop2970"
         style="stop-color:#209326;stop-opacity:1;" />
      <stop
         stop-color="#366c99"
         offset="1"
         id="stop2972"
         style="stop-color:#19731e;stop-opacity:1;" />
    </linearGradient>
    <linearGradient
       id="lg2">
      <stop
         stop-color="#fff"
         offset="0"
         id="stop2975" />
      <stop
         stop-color="#fff"
         stop-opacity="0.165"
         offset="1"
         id="stop2977" />
    </linearGradient>
    <linearGradient
       id="lg3">
      <stop
         stop-color="#ffe253"
         offset="0"
         id="stop2980"
         style="stop-color:#ee1800;stop-opacity:1;" />
      <stop
         stop-color="#ffca1c"
         offset="1"
         id="stop2982"
         style="stop-color:#c81e00;stop-opacity:1;" />
    </linearGradient>
    <linearGradient
       id="lg4">
      <stop
         stop-color="#000"
         offset="0"
         id="stop2985" />
      <stop
         stop-color="#000"
         stop-opacity="0"
         offset="1"
         id="stop2987" />
    </linearGradient>
    <linearGradient
       x1="94.693001"
       y1="112.511"
       x2="94.693001"
       y2="64.053001"
       id="lg5"
       xlink:href="#lg2"
       gradientUnits="userSpaceOnUse"
       gradientTransform="matrix(3.5973559,0,0,3.5973559,-170.43883,-198.59851)" />
    <linearGradient
       x1="59.728001"
       y1="102"
       x2="142.62"
       y2="102"
       id="lg6"
       xlink:href="#lg1"
       gradientUnits="userSpaceOnUse"
       gradientTransform="matrix(3.5973559,0,0,3.5973559,-170.43883,-198.59851)" />
    <linearGradient
       x1="94.693001"
       y1="112.511"
       x2="94.693001"
       y2="64.053001"
       id="lg7"
       xlink:href="#lg2"
       gradientUnits="userSpaceOnUse"
       gradientTransform="matrix(3.5973559,0,0,3.5973559,-37.448038,-61.703143)" />
    <linearGradient
       x1="119.191"
       y1="89.129997"
       x2="116.965"
       y2="169.27901"
       id="lg8"
       xlink:href="#lg3"
       gradientUnits="userSpaceOnUse"
       gradientTransform="matrix(3.5973559,0,0,3.5973559,-140.04594,-163.88325)" />
    <radialGradient
       cx="15.115"
       cy="63.965"
       r="12.289"
       fx="15.115"
       fy="63.965"
       id="rg1"
       xlink:href="#lg4"
       gradientUnits="userSpaceOnUse"
       gradientTransform="matrix(16.264841,0,0,5.6088694,-15.968384,68.223662)" />
  </defs>
  <path
     d="m 429.74702,426.99708 a 199.87253,68.92735 0 0 1 -399.745067,0 199.87253,68.92735 0 1 1 399.745067,0 z"
     id="path2994"
     style="fill:url(#rg1)" />
  <path
     d="m 373.00915,401.08109 c 0,27.7712 -24.10245,41.83724 -48.56478,48.85246 -36.80123,10.57621 -66.33513,8.95685 -97.09195,0 -25.68625,-7.48385 -48.56478,-22.7728 -48.56478,-48.85246 l 0,-91.62392 c 0,-26.36937 21.97888,-48.88804 48.56478,-48.88804 l 95.53968,-6.21215 c 32.3406,0 53.47677,-20.18671 53.47677,-53.31819 l 8.79825,-44.29017 36.4058,0 c 28.27439,0 41.58615,21.00909 48.56478,48.85144 9.71316,38.67272 10.14316,67.59567 0,97.74153 -9.82091,29.2818 -20.33104,48.85146 -48.56478,48.85146 l -48.56377,0 -97.09296,0 0,-0.20332 c 83.78833,0.20332 97.09296,-33.71294 97.09296,49.08017 z"
     id="path2996"
     style="fill:url(#lg8)" />
  <path
     d="m 312.32096,407.16109 c 0,-10.1086 8.16597,-18.31116 18.2024,-18.31116 10.16552,0 18.20239,8.20256 18.20239,18.31116 0,10.14417 -8.12937,18.34572 -18.20239,18.34572 -10.03643,0 -18.2024,-8.20155 -18.2024,-18.34572 z"
     id="path2998"
     style="fill:#ffffff" />
  <path
     d="m 385.06344,156.74353 0,42.9646 C 350.38781,260.66977 284.51419,260.7887 229.25439,260.7887 l -20.50386,2.08596 c -28.81114,24.76729 -29.72806,64.51348 -29.70672,99.37412 63.53657,-70.89641 131.31216,-76.24551 165.12473,-76.09302 67.47571,0.2948 99.25416,-16.29432 131.47989,-52.79873 -0.16264,-0.71158 0.16265,-1.34185 0,-2.07072 -1.24222,-8.13242 -3.41765,-16.81784 -5.69371,-25.88142 -3.27126,-13.05152 -7.55095,-24.5406 -14.49299,-33.12844 -0.16265,-0.16265 -0.38628,-0.34562 -0.51844,-0.50827 0,0 -0.42695,0 -0.50827,0 -0.23381,-0.28464 -0.28464,-0.76242 -0.50828,-1.02773 -0.47778,-0.34564 -0.52861,-0.7116 -1.02672,-1.02672 -0.16265,-0.16265 -0.39646,0.16264 -0.50827,0 -7.36086,-4.77069 -16.30144,-8.33065 -25.36502,-9.83617 -8.21477,-1.35811 -16.46002,-2.39296 -24.84659,-3.10557 l -5.17627,0 -11.90485,0 z"
     id="path3000"
     style="opacity:0.83699999;fill:url(#lg7)" />
  <path
     d="m 377.87438,401.07601 c 0,27.77221 -28.9687,41.8413 -53.43001,48.85551 -36.7992,10.57215 -66.33005,8.95583 -97.09093,0 -25.68828,-7.48182 -48.80469,-22.77077 -48.84536,-48.84535 l -0.16264,-94.11243 c -0.10166,-31.23866 23.40104,-50.92928 49.29263,-50.82764 l 86.06846,0.15249 c 33.03796,0 65.16102,-33.54623 65.06953,-66.5842 l 0,-32.90579 42.79686,0 c 28.27439,0 41.577,21.01213 48.56072,48.8555 9.71824,38.66967 10.16552,67.59059 0,97.74153 -9.8199,29.27672 -20.33106,52.32806 -48.56072,52.33213 l -43.71176,0 -101.96023,0 0,-0.20331 101.96023,0.34563 z"
     id="path3002"
     style="fill:none;stroke:#bb1200;stroke-width:16.56980705;stroke-opacity:1" />
  <path
     d="m 387.08739,165.0264 0,24.32915 c 0,37.8615 -35.54376,74.97787 -76.04728,74.97787 l -83.85644,0 c -28.97784,0 -40.84914,21.92602 -40.70479,45.11359 l 0.56927,91.62087 c 0.10166,10.6189 4.06621,18.53683 11.67002,25.36399 7.60382,6.82616 19.03596,12.02583 31.05873,15.52988 29.64674,8.63256 56.68297,10.18789 92.13829,0 11.51449,-3.30176 26.83089,-9.55661 34.53839,-16.22824 7.70648,-6.67368 13.29346,-13.17554 13.29346,-24.66563 l 0,-36.89883 -102.18386,0 0,-17.07301 154.25473,0.50829 c 12.20676,0 18.17596,-4.8022 24.23868,-11.82556 6.06272,-7.02437 11.33355,-20.80781 16.13675,-35.13206 9.61252,-28.56106 9.49054,-55.39297 0,-93.17517 -3.30583,-13.19282 -8.10802,-23.84934 -14.49298,-31.05771 -6.38395,-7.20838 -13.79462,-11.38743 -25.88245,-11.38743 z m 16.56371,16.56371 18.16275,0 c 5.2881,0 12.19151,4.26342 13.45915,5.69473 3.685,4.16075 7.92911,12.59102 10.87101,24.32814 9.04224,36.00222 9.06257,58.46701 0.50828,83.85643 -4.59177,13.69296 -9.35737,26.57472 -12.9397,30.49658 -3.23671,3.45119 -10.16553,5.1773 -11.90688,5.1773 l -48.65729,-0.51845 -122.16216,0 0,50.20144 102.18386,0 0,20.33105 c 0,7.39033 -9.89411,11.98414 -11.59684,13.45814 -4.95264,4.28883 -13.73159,8.49737 -23.8107,11.38742 -32.7635,9.41735 -55.9104,7.98909 -83.34105,0 -10.38002,-3.02424 -19.37651,-7.46048 -24.46741,-11.78693 -5.09089,-4.32644 -5.40399,-7.86913 -6.34125,-13.0627 L 203.0436,309.5324 c -0.13215,-20.55876 6.56388,-28.54887 24.14109,-28.54887 l 83.85644,0 c 50.04793,0 92.61099,-44.22206 92.61099,-91.54258 9.7e-4,-2.61661 -9.8e-4,-5.23424 -9.8e-4,-7.85084 z"
     id="path3004"
     style="opacity:0.38399999;fill:#ffffff" />
  <path
     d="m 148.39475,73.145301 c 0,-27.7712 7.44523,-42.880221 48.56275,-50.075379 27.91656,-4.892668 63.7104,-5.503616 97.09398,0 26.36836,4.352878 48.56479,23.994706 48.56479,50.075379 l 0,91.625949 c 0,26.87155 -21.54889,48.88702 -48.56479,48.88702 l -88.0548,4.86726 c -32.95053,0 -66.98064,28.78979 -66.98064,60.55603 l -2.78129,38.3952 -33.38359,0 c -28.238814,0 -44.678503,-20.36054 -51.584961,-48.85145 -9.317721,-38.27423 -8.921266,-61.08262 0,-97.73849 7.733932,-31.98175 32.448358,-48.85348 57.943491,-48.85348 l 36.44139,0 c 0,0 90.92858,-0.35579 0,-0.32529 l 0,-48.561733 0,0 z"
     id="path3006"
     style="fill:url(#lg6)" />
  <path
     d="m 172.67612,67.0653 c 0,-10.165526 8.13243,-18.346741 18.2024,-18.346741 10.03642,0 18.2034,8.201546 18.2034,18.346741 0,10.108598 -8.16698,18.310145 -18.2034,18.310145 -10.07201,0 -18.2024,-8.201547 -18.2024,-18.310145 z"
     id="path3008"
     style="fill:#ffffff" />
  <path
     d="m 237.16622,19.019976 c -14.36796,0.347661 -28.16257,2.000575 -40.37543,4.140419 -41.11752,7.195158 -48.13885,22.439381 -48.13885,50.210581 l -3.00086,48.662364 -33.7526,-0.003 c -28.238817,0 -52.828207,16.67756 -60.562139,48.65627 -5.250493,21.57633 -7.62821,38.46839 -6.730595,56.42274 63.965554,-72.49944 132.601154,-77.79771 166.679054,-77.6442 67.47468,0.29479 99.25313,-16.29433 131.47887,-52.798732 l 0,-23.293285 c 0,-26.079656 -22.28893,-45.856686 -48.65729,-50.209564 -18.77776,-3.09855 -38.46737,-4.590849 -56.94016,-4.143566 z"
     id="path3010"
     style="opacity:0.37699998;fill:url(#lg5)" />
  <path
     d="m 196.2876,25.440522 c 36.80021,-10.576213 66.33513,-8.956844 97.09093,0 25.68625,7.482843 48.57799,22.770777 48.56478,48.852466 l 0,98.925812 c 0,13.88814 -20.07284,46.04271 -48.51598,46.04271 l -90.46099,0 c -25.39653,0 -60.96266,27.66752 -60.96266,60.80001 l 0,38.56496 -42.796862,0 c -28.27541,0 -41.586149,-21.00909 -48.564782,-48.85348 -9.71316,-38.67068 -10.165526,-67.59364 0,-97.7395 9.820914,-29.28281 20.331051,-52.32908 48.564782,-52.32908 l 43.696512,0 101.96023,0 0,0.19315 -101.96023,-0.34563 0.19315,-49.539654 c -0.26431,-20.295472 24.54568,-36.112013 53.18908,-44.570747 z"
     id="path3012"
     style="fill:none;stroke:#277029;stroke-width:16.56980705;stroke-opacity:1" />
  <path
     d="m 133.64457,310.34666 0,-28.42281 c 0,-37.86252 34.51501,-71.45043 71.62731,-71.45043 l 88.27641,0 c 21.90569,0 40.90607,-22.78196 40.7048,-44.54635 L 333.40528,74.305187 C 333.30363,63.687296 329.62167,55.768351 322.01684,48.941184 314.41405,42.114017 302.98088,36.91435 290.95913,33.412327 c -29.64877,-8.634598 -56.685,-10.188906 -92.1393,0 -11.51348,3.301763 -26.83293,9.555594 -34.53839,16.228245 -7.70751,6.672652 -13.29245,13.174522 -13.29245,24.664615 l 0,36.898823 102.18285,0 0,17.08215 -154.25474,-0.51844 c -12.19863,0 -18.17596,4.80219 -24.238679,11.82657 -6.062719,7.02235 -11.333544,20.80578 -16.136755,35.13104 -9.612521,28.56106 -9.489519,55.39195 0,93.17416 3.305828,13.19282 8.108023,23.84934 14.494006,31.05772 6.38395,7.20938 13.794619,11.38844 25.881428,11.38844 l 34.72747,0 z m -16.56472,-16.56473 -18.16275,0 c -5.286073,0 -12.19863,-4.26342 -13.458139,-5.69269 -3.686019,-4.16177 -7.930126,-12.59305 -10.87203,-24.33017 -9.042235,-36.00121 -9.06155,-58.46499 -0.513358,-83.85644 4.591767,-13.69093 9.357366,-26.5737 12.940713,-30.3939 3.236704,-3.44917 10.07302,-5.17629 11.905864,-5.17629 l 170.81947,0.51845 0,-50.211602 -102.18285,0 0,-20.331052 c 0,-7.390336 9.89309,-11.984137 11.59581,-13.458139 4.95366,-4.288835 13.73261,-8.497363 23.81173,-11.385388 32.76247,-9.41531 55.91039,-7.98807 83.34002,0 10.38104,3.024243 19.37651,7.460479 24.32814,11.905864 1.76169,1.374378 2.6898,3.02221 4.14551,4.657843 2.01988,2.40923 1.57769,5.593377 2.04428,8.281854 l 0,91.62188 c 0,12.56154 -10.73987,27.98265 -23.29226,27.98265 l -88.27641,0 c -46.65672,0 -88.19204,40.69157 -88.19204,88.01413 0,3.93914 0,11.853 0,11.853 z"
     id="path3014"
     style="opacity:0.16499999;fill:#ffffff" />
  <path
     style="fill:#ffffff;fill-opacity:1;stroke:none;stroke-width:4;stroke-linecap:round;stroke-linejoin:round;stroke-miterlimit:4;stroke-opacity:1;stroke-dasharray:none;stroke-dashoffset:0"
     d="m 150.56247,327.1704 19.46272,0.28552 c 0,0 1.33616,-31.06833 1.77144,-34.66894 0.85274,-7.05377 10.25208,-24.79211 16.07969,-29.84832 9.28817,-8.05867 24.81587,-14.87335 34.46759,-14.86197 1.79667,0.002 60.60772,0.44633 86.51375,-0.007 23.16344,-0.40558 33.59043,-8.19986 38.01022,-12.61965 4.9122,-4.9122 16.36085,-18.43585 17.82994,-21.62242 0.59737,-1.29573 5.87515,-17.08506 5.82307,-20.38571 -0.0921,-5.83571 0.20984,-44.82702 0.20984,-44.82702 l -20.60479,0 c 0,0 -0.56471,29.02129 -0.87332,30.77406 -1.74356,9.90258 -9.60368,22.3109 -16.75892,30.08224 -9.53846,10.35977 -22.9567,16.08069 -32.74553,17.92385 -1.1756,0.22135 -94.31711,0.4118 -96.97569,0.57329 -6.06846,0.36862 -13.36352,-0.82038 -33.36908,14.87024 -8.60381,6.74808 -17.31345,20.77078 -18.41919,29.8806 -1.6023,13.20083 -0.42174,53.46965 -0.42174,54.45151 l 0,-2.8e-4 z"
     id="path3794"
     sodipodi:nodetypes="ccsssssssccsssssscc" />
</svg>
